<?xml version="1.0" encoding="UTF-8"?>
<svg version="1.1" xmlns="http://www.w3.org/2000/svg" width="800" height="566">
<path d="M0 0 C264 0 528 0 800 0 C800 186.78 800 373.56 800 566 C536 566 272 566 0 566 C0 379.22 0 192.44 0 0 Z " fill="#FEFEFE" transform="translate(0,0)"/>
<path d="M0 0 C7.05090674 5.76147061 13.37217356 12.24637456 19.78833008 18.69067383 C21.07651823 19.98078332 22.36493585 21.27066371 23.65356445 22.56033325 C26.41703133 25.32694984 29.17893976 28.09510944 31.93964577 30.86448097 C36.30244168 35.2408336 40.66908018 39.61333857 45.03630066 43.98527527 C54.29800177 53.2580557 63.55545663 62.53507009 72.8125 71.8125 C82.82395925 81.84597736 92.83614553 91.87872283 102.85319823 101.90661639 C107.19774254 106.25615241 111.53983496 110.60811718 115.88008749 114.96193564 C118.57291768 117.66220158 121.26779685 120.3604153 123.96324921 123.05806351 C125.21625583 124.31294889 126.46839441 125.56870168 127.71961784 126.82536507 C129.42190672 128.5348243 131.12721227 130.2412153 132.83332825 131.94685364 C133.58199881 132.70091664 133.58199881 132.70091664 134.34579402 133.47021323 C136.92609787 136.06244922 136.92609787 136.06244922 140 138 C140 193.11 140 248.22 140 305 C103.04 305 66.08 305 28 305 C28 277.61 28 250.22 28 222 C9.85 222 -8.3 222 -27 222 C-27 249.39 -27 276.78 -27 305 C-63.63 305 -100.26 305 -138 305 C-143.81997209 266.99680063 -143.81997209 266.99680063 -145.0078125 252.60375977 C-145.08112289 251.71852918 -145.15443329 250.83329859 -145.22996521 249.92124283 C-145.76257992 243.32650706 -146.21333152 236.72829867 -146.625 230.125 C-146.68493385 229.19152788 -146.74486771 228.25805575 -146.80661774 227.2962966 C-149.85491369 178.48417185 -144.9679591 138.88949429 -111.7836113 101.17219543 C-98.29935064 86.14413876 -83.91432986 72.15910741 -69 58.5625 C-68.17562722 57.80897405 -67.35125444 57.05544809 -66.50190067 56.27908802 C-45.02174594 36.67454956 -22.89012458 17.93565595 0 0 Z " fill="#000000" transform="translate(399,172)"/>
<path d="M0 0 C5.17656401 4.33008069 10.01312589 8.87464499 14.77124023 13.65771484 C15.51353378 14.39986237 16.25582733 15.14200989 17.02061462 15.90664673 C19.45232135 18.33904528 21.88047539 20.77495733 24.30859375 23.2109375 C26.002309 24.90651952 27.69624643 26.60187963 29.39039612 28.29702759 C33.83293779 32.743374 38.2724672 37.19271615 42.71136475 41.6427002 C47.24780964 46.18940325 51.78711252 50.73325102 56.32617188 55.27734375 C65.22023951 64.18211265 74.11085941 73.0903127 83 82 C83.33 73.09 83.66 64.18 84 55 C102.48 55 120.96 55 140 55 C139.12085938 60.11242187 138.24171875 65.22484375 137.3359375 70.4921875 C136.42709291 77.60649867 135.82112341 84.71742002 135.375 91.875 C135.31668377 92.80264286 135.25836754 93.73028572 135.19828415 94.68603897 C133.78212137 120.93765828 138.97018383 140.03840731 156.64139557 159.88470459 C164.75434006 168.70301518 173.26798589 177.05706827 182.0625 185.1875 C182.79663069 185.86736733 182.79663069 185.86736733 183.54559231 186.56096935 C194.70386365 196.8792207 206.08393761 206.93186589 217.80721092 216.60542107 C218.49574968 217.17517725 219.18428844 217.74493343 219.89369202 218.33195496 C220.79878808 219.07396542 220.79878808 219.07396542 221.72216892 219.830966 C222.14385318 220.21674722 222.56553743 220.60252844 223 221 C223 221.33 223 221.66 223 222 C173.62925785 228.494694 173.62925785 228.494694 155.58935547 215.5949707 C145.410267 207.70563878 136.65793835 198.17052404 128.00363922 188.68169975 C123.6335486 183.95515692 119.09786975 179.39248606 114.57958984 174.80822754 C107.05102619 167.12679573 99.6285067 159.35763398 92.27978516 151.50439453 C84.72761861 143.43431704 77.11593606 135.42825213 69.41943359 127.49560547 C68.94129184 127.0027512 68.46315008 126.50989693 67.97051919 126.00210768 C65.5702927 123.52877351 63.16887776 121.05659708 60.7668705 118.58499241 C40.99076967 98.23283196 21.42842495 77.68402301 2 57 C-1.26971024 58.55444689 -3.44241254 60.20309306 -5.99902344 62.7878418 C-7.16108307 63.95496956 -7.16108307 63.95496956 -8.34661865 65.14567566 C-9.59043304 66.40967949 -9.59043304 66.40967949 -10.859375 67.69921875 C-12.15418793 69.00183403 -12.15418793 69.00183403 -13.47515869 70.33076477 C-16.2382215 73.11164585 -18.99453374 75.89909318 -21.75 78.6875 C-24.4919961 81.4572247 -27.23546835 84.22544412 -29.98199463 86.99067688 C-31.690027 88.7108409 -33.39538039 90.43367061 -35.09759521 92.15959167 C-36.27856781 93.35036064 -36.27856781 93.35036064 -37.48339844 94.56518555 C-38.16416443 95.25420456 -38.84493042 95.94322357 -39.54632568 96.65312195 C-41.52321604 98.54396808 -43.52918227 100.29803366 -45.61553955 102.0619812 C-50.49549313 106.30748567 -54.81992301 111.04078628 -59.17552948 115.80998611 C-61.82516282 118.70939613 -64.49057605 121.59422731 -67.15600586 124.47911072 C-67.72206354 125.09205329 -68.28812122 125.70499586 -68.87133217 126.33651245 C-76.85817734 134.96732852 -84.99473975 143.45698654 -93.12913513 151.94848537 C-99.71877614 158.83591215 -106.24680052 165.76644841 -112.65429688 172.82397461 C-120.08891038 180.99780005 -127.65055299 189.03135005 -135.4375 196.87109375 C-136.37643726 197.81652456 -136.37643726 197.81652456 -137.33434296 198.78105497 C-153.34822298 214.76027653 -166.92029334 225.49065802 -190.19750977 225.91896057 C-200.95378113 225.64137534 -211.50637306 224.36937191 -222 222 C-217.40982888 216.49427113 -212.53310771 211.39053568 -207.45947266 206.33007812 C-206.6228862 205.49173935 -205.78629974 204.65340057 -204.92436218 203.78965759 C-202.64719895 201.50886766 -200.36782626 199.23031663 -198.08725786 196.95293236 C-195.688532 194.55675659 -193.29226781 192.15812096 -190.89559937 189.7598877 C-186.87099717 185.73347114 -182.84430274 181.70915602 -178.81640625 177.68603516 C-174.17709344 173.05215984 -169.54138878 168.4146984 -164.90754855 163.77535105 C-160.9117338 159.77497978 -156.91395042 155.77658373 -152.91455305 151.77979422 C-150.53350085 149.40029134 -148.15310621 147.02014121 -145.77449417 144.63819885 C-143.11852107 141.97967215 -140.459339 139.32439601 -137.79931641 136.66992188 C-137.02399063 135.89257187 -136.24866486 135.11522186 -135.44984436 134.3143158 C-132.11952021 130.99677959 -128.77310204 127.75890032 -125.20101929 124.70201111 C-119.51387201 119.79563698 -114.2832285 114.41446318 -108.984375 109.09790039 C-107.79130695 107.90454979 -106.59801772 106.71142029 -105.40452576 105.51849365 C-102.18591774 102.30017098 -98.9703889 99.078788 -95.75542831 95.85682225 C-92.38733782 92.48245436 -89.01639008 89.11094322 -85.64575195 85.73912048 C-79.27267575 79.36294386 -72.90215163 72.98422379 -66.53255367 66.60457271 C-59.27693409 59.33775188 -52.01845388 52.07379124 -44.75973892 44.81006253 C-29.83665387 29.87654228 -14.91714229 14.93945633 0 0 Z " fill="#010101" transform="translate(399,89)"/>
</svg>
